<svg width="24" height="24" viewBox="0 0 24 24" fill="none" xmlns="http://www.w3.org/2000/svg">
<path d="M19.75 15C19.75 19.2802 16.2802 22.75 12 22.75C7.71979 22.75 4.25 19.2802 4.25 15C4.25 13.9565 4.727 12.5731 5.47418 11.0592C6.21708 9.55397 7.2101 7.95261 8.20688 6.48351C9.20305 5.01529 10.1997 3.68393 10.9476 2.71936C11.3214 2.2372 11.6328 1.84699 11.8507 1.5775C11.9069 1.50799 11.9568 1.44652 12 1.39358C12.0432 1.44652 12.0931 1.50799 12.1493 1.5775C12.3672 1.84699 12.6786 2.2372 13.0524 2.71936C13.8003 3.68393 14.797 5.01529 15.7931 6.48351C16.7899 7.95261 17.7829 9.55397 18.5258 11.0592C19.273 12.5731 19.75 13.9565 19.75 15Z" fill="#34A4FC" stroke="#2096F3" stroke-width="0.5"/>
</svg>
