<svg width="32" height="34" viewBox="0 0 32 34" fill="none" xmlns="http://www.w3.org/2000/svg">
<path d="M14.5517 27.1035C21.4839 27.1035 27.1035 21.4839 27.1035 14.5517C27.1035 7.6196 21.4839 2 14.5517 2C7.6196 2 2 7.6196 2 14.5517C2 21.4839 7.6196 27.1035 14.5517 27.1035Z" stroke="#C90808" stroke-width="3" stroke-miterlimit="10"/>
<path d="M14.5517 27.1035C11.3488 27.1065 8.2665 25.8815 5.93931 23.6808L2 29.0346V31.738H27.1035V29.0346L23.1641 23.6808C20.837 25.8815 17.7547 27.1065 14.5517 27.1035Z" fill="#C90808" stroke="#C90808" stroke-width="3" stroke-miterlimit="10"/>
<path d="M29.9991 2H14.5508C17.3762 1.99981 20.119 2.9529 22.3356 4.70507C24.5521 6.45725 26.1126 8.90601 26.7646 11.6552H29.9991V2Z" fill="#C90808" stroke="#C90808" stroke-width="3" stroke-miterlimit="10"/>
<path d="M20.9473 8.15503C21.7769 9.0071 22.2376 10.1516 22.2297 11.3408C22.2218 12.53 21.7458 13.6682 20.9049 14.5092C20.064 15.3501 18.9258 15.826 17.7365 15.8339C16.5473 15.8419 15.4028 15.3812 14.5508 14.5516L20.9473 8.15503Z" fill="#C90808"/>
<path d="M20.9486 20.9484C20.0965 21.778 18.952 22.2387 17.7628 22.2308C16.5736 22.2229 15.4353 21.7469 14.5944 20.906C13.7535 20.0651 13.2776 18.9269 13.2696 17.7376C13.2617 16.5484 13.7224 15.4039 14.552 14.5519L20.9486 20.9484Z" fill="#C90808"/>
<path d="M8.15552 20.9483C7.3259 20.0962 6.86521 18.9517 6.87315 17.7625C6.88109 16.5733 7.35702 15.4351 8.19793 14.5942C9.03885 13.7533 10.1771 13.2773 11.3663 13.2694C12.5555 13.2614 13.7 13.7221 14.5521 14.5518L8.15552 20.9483Z" fill="#C90808"/>
<path d="M8.1543 8.15503C9.00636 7.32542 10.1509 6.86472 11.3401 6.87266C12.5293 6.8806 13.6675 7.35653 14.5084 8.19745C15.3493 9.03836 15.8253 10.1766 15.8332 11.3658C15.8412 12.555 15.3805 13.6995 14.5508 14.5516L8.1543 8.15503Z" fill="#C90808"/>
<path d="M14.5522 15.8793C15.2854 15.8793 15.8798 15.2849 15.8798 14.5517C15.8798 13.8185 15.2854 13.2241 14.5522 13.2241C13.819 13.2241 13.2246 13.8185 13.2246 14.5517C13.2246 15.2849 13.819 15.8793 14.5522 15.8793Z" fill="white"/>
</svg>
