<svg width="40" height="40" viewBox="0 0 40 40" fill="none" xmlns="http://www.w3.org/2000/svg">
<g filter="url(#filter0_d)">
<path d="M4 18C4 9.16344 11.1634 2 20 2C28.8366 2 36 9.16344 36 18C36 26.8366 28.8366 34 20 34C11.1634 34 4 26.8366 4 18Z" fill="url(#paint0_linear)"/>
<path d="M22 23L17 18L22 13" stroke="#4A5056" stroke-width="1.5" stroke-miterlimit="10"/>
<path d="M20 33C11.7157 33 5 26.2843 5 18H3C3 27.3888 10.6112 35 20 35V33ZM35 18C35 26.2843 28.2843 33 20 33V35C29.3888 35 37 27.3888 37 18H35ZM20 3C28.2843 3 35 9.71573 35 18H37C37 8.61116 29.3888 1 20 1V3ZM20 1C10.6112 1 3 8.61116 3 18H5C5 9.71573 11.7157 3 20 3V1Z" fill="#EAECEF"/>
</g>
<defs>
<filter id="filter0_d" x="0" y="0" width="40" height="40" filterUnits="userSpaceOnUse" color-interpolation-filters="sRGB">
<feFlood flood-opacity="0" result="BackgroundImageFix"/>
<feColorMatrix in="SourceAlpha" type="matrix" values="0 0 0 0 0 0 0 0 0 0 0 0 0 0 0 0 0 0 127 0" result="hardAlpha"/>
<feOffset dy="2"/>
<feGaussianBlur stdDeviation="2"/>
<feComposite in2="hardAlpha" operator="out"/>
<feColorMatrix type="matrix" values="0 0 0 0 0 0 0 0 0 0 0 0 0 0 0 0 0 0 0.08 0"/>
<feBlend mode="normal" in2="BackgroundImageFix" result="effect1_dropShadow"/>
<feBlend mode="normal" in="SourceGraphic" in2="effect1_dropShadow" result="shape"/>
</filter>
<linearGradient id="paint0_linear" x1="20" y1="2" x2="20" y2="34" gradientUnits="userSpaceOnUse">
<stop stop-color="white"/>
<stop offset="1" stop-color="#F1F3F5"/>
</linearGradient>
</defs>
</svg>
